<?xml version="1.0" encoding="utf-8"?>
<!-- Generator: Adobe Illustrator 21.0.2, SVG Export Plug-In . SVG Version: 6.00 Build 0)  -->
<svg version="1.1" id="Layer_1" xmlns="http://www.w3.org/2000/svg" xmlns:xlink="http://www.w3.org/1999/xlink" x="0px" y="0px"
	 viewBox="0 0 214 42.8" style="enable-background:new 0 0 214 42.8;" xml:space="preserve">
<style type="text/css">
	.st0{fill:#FFFFFF;}
	.st1{clip-path:url(#SVGID_2_);fill:#FFFFFF;}
</style>
<g>
	<path class="st0" d="M11.7,10.6v2.8h2.5V27c0,0.6-0.1,1-0.2,1.3c-0.2,0.3-0.3,0.6-0.6,0.8c-0.2,0.2-0.4,0.3-0.7,0.4
		c-0.2,0.1-0.5,0.1-0.7,0.1c-0.3,0-0.6-0.1-0.9-0.2c-0.3-0.2-0.6-0.3-0.8-0.6l-2.5,2c0.4,0.4,0.9,0.9,1.6,1.3
		c0.7,0.4,1.5,0.7,2.5,0.7c0.8,0,1.6-0.1,2.3-0.4c0.7-0.3,1.2-0.7,1.7-1.2c0.5-0.5,0.8-1.1,1.1-1.7c0.2-0.7,0.4-1.3,0.4-2.1V10.6
		H11.7L11.7,10.6z"/>
	<path class="st0" d="M28.1,10.6h2.6l4.9,22.1h-3.2l-0.9-4.7h-4.3l-0.9,4.7h-3.2L28.1,10.6L28.1,10.6z M29.4,17L29.4,17l-1.6,8H31
		L29.4,17L29.4,17z"/>
	<path class="st0" d="M51.6,27.7c0,0.7-0.1,1.3-0.4,2c-0.3,0.6-0.6,1.2-1.1,1.6c-0.5,0.5-1,0.8-1.6,1.1c-0.6,0.3-1.3,0.4-2,0.4
		c-0.6,0-1.2-0.1-1.8-0.2c-0.6-0.2-1.2-0.4-1.7-0.9c-0.5-0.4-0.9-0.9-1.2-1.6c-0.3-0.7-0.5-1.5-0.5-2.5V15.5c0-0.7,0.1-1.4,0.4-2
		c0.2-0.6,0.6-1.2,1.1-1.6c0.5-0.5,1-0.8,1.6-1.1c0.6-0.3,1.3-0.4,2.1-0.4c0.7,0,1.4,0.1,2,0.4c0.6,0.3,1.2,0.6,1.6,1.1
		c0.5,0.5,0.8,1,1.1,1.7c0.3,0.7,0.4,1.4,0.4,2.1v1.2h-3.2v-1.1c0-0.6-0.2-1.2-0.5-1.6c-0.4-0.5-0.8-0.7-1.4-0.7
		c-0.8,0-1.3,0.2-1.6,0.7c-0.3,0.5-0.4,1.1-0.4,1.8v11.3c0,0.6,0.1,1.2,0.4,1.6c0.3,0.4,0.8,0.7,1.5,0.7c0.2,0,0.4,0,0.7-0.1
		c0.2-0.1,0.5-0.2,0.7-0.4c0.2-0.2,0.4-0.4,0.5-0.7c0.1-0.3,0.2-0.7,0.2-1.1v-1.1h3.2V27.7L51.6,27.7z"/>
	<path class="st0" d="M58.2,15.8c0-0.9,0.2-1.7,0.5-2.4c0.3-0.7,0.7-1.2,1.2-1.7c0.5-0.4,1.1-0.8,1.7-1c0.6-0.2,1.3-0.3,1.9-0.3
		c0.6,0,1.3,0.1,1.9,0.3c0.6,0.2,1.2,0.6,1.7,1c0.5,0.4,0.9,1,1.2,1.7c0.3,0.7,0.5,1.5,0.5,2.4v11.7c0,0.9-0.2,1.7-0.5,2.4
		c-0.3,0.7-0.7,1.2-1.2,1.7c-0.5,0.4-1.1,0.8-1.7,1c-0.6,0.2-1.3,0.3-1.9,0.3c-0.6,0-1.3-0.1-1.9-0.3c-0.6-0.2-1.2-0.6-1.7-1
		c-0.5-0.4-0.9-1-1.2-1.7c-0.3-0.7-0.5-1.5-0.5-2.4V15.8L58.2,15.8z M61.3,27.5c0,0.8,0.2,1.3,0.6,1.7c0.4,0.4,0.9,0.5,1.5,0.5
		c0.6,0,1.1-0.2,1.5-0.5c0.4-0.4,0.6-0.9,0.6-1.7V15.8c0-0.8-0.2-1.3-0.6-1.7c-0.4-0.4-0.9-0.5-1.5-0.5c-0.6,0-1.1,0.2-1.5,0.5
		c-0.4,0.4-0.6,0.9-0.6,1.7V27.5L61.3,27.5z"/>
	<path class="st0" d="M75.6,10.6h4.6c1,0,1.9,0.2,2.6,0.5c0.7,0.3,1.3,0.7,1.8,1.2c0.5,0.5,0.8,1.1,1,1.8c0.2,0.7,0.3,1.4,0.3,2.1
		V17c0,0.6,0,1.1-0.1,1.5c-0.1,0.4-0.2,0.8-0.4,1.1c-0.2,0.3-0.4,0.6-0.7,0.8c-0.3,0.2-0.6,0.5-0.9,0.7c0.7,0.4,1.3,0.9,1.6,1.6
		c0.4,0.7,0.5,1.6,0.5,2.8v1.2c0,1.9-0.5,3.4-1.4,4.5c-0.9,1-2.4,1.6-4.5,1.6h-4.3V10.6L75.6,10.6z M78.8,19.7h1.4
		c1.1,0,1.8-0.3,2.1-0.8c0.4-0.5,0.5-1.3,0.5-2.3c0-1-0.2-1.7-0.6-2.2c-0.4-0.5-1.1-0.7-2.2-0.7h-1.3V19.7L78.8,19.7z M78.8,29.5
		h1.4c0.6,0,1.1-0.1,1.5-0.3c0.4-0.2,0.6-0.4,0.8-0.8c0.2-0.3,0.3-0.7,0.3-1.2c0-0.5,0.1-1,0.1-1.5c0-0.6,0-1-0.1-1.5
		c-0.1-0.4-0.2-0.8-0.4-1c-0.2-0.3-0.5-0.5-0.8-0.6c-0.4-0.1-0.8-0.2-1.4-0.2h-1.4V29.5L78.8,29.5z"/>
	<path class="st0" d="M99.8,10.6h4.6c1,0,1.9,0.2,2.6,0.5c0.7,0.3,1.3,0.7,1.8,1.2c0.5,0.5,0.8,1.1,1,1.8c0.2,0.7,0.3,1.4,0.3,2.1
		V17c0,0.6,0,1.1-0.1,1.5c-0.1,0.4-0.2,0.8-0.4,1.1c-0.2,0.3-0.4,0.6-0.7,0.8c-0.3,0.2-0.6,0.5-0.9,0.7c0.7,0.4,1.3,0.9,1.6,1.6
		c0.4,0.7,0.5,1.6,0.5,2.8v1.2c0,1.9-0.5,3.4-1.4,4.5c-0.9,1-2.4,1.6-4.5,1.6h-4.3V10.6L99.8,10.6z M103,19.7h1.4
		c1.1,0,1.8-0.3,2.1-0.8c0.4-0.5,0.5-1.3,0.5-2.3c0-1-0.2-1.7-0.6-2.2c-0.4-0.5-1.1-0.7-2.2-0.7H103V19.7L103,19.7z M103,29.5h1.4
		c0.6,0,1.1-0.1,1.5-0.3c0.4-0.2,0.6-0.4,0.8-0.8s0.3-0.7,0.3-1.2c0-0.5,0.1-1,0.1-1.5c0-0.6,0-1-0.1-1.5c-0.1-0.4-0.2-0.8-0.4-1
		c-0.2-0.3-0.5-0.5-0.8-0.6c-0.4-0.1-0.8-0.2-1.4-0.2H103V29.5L103,29.5z"/>
	<path class="st0" d="M120.7,10.6h2.6l4.9,22.1h-3.2l-0.9-4.7h-4.3l-0.9,4.7h-3.2L120.7,10.6L120.7,10.6z M122,17L122,17l-1.6,8h3.2
		L122,17L122,17z"/>
	<polygon class="st0" points="134.5,10.6 137.7,10.6 137.7,32.7 134.5,32.7 134.5,10.6 	"/>
	<polygon class="st0" points="144.7,10.6 147.8,10.6 147.8,29.5 154.1,29.5 154.1,32.7 144.7,32.7 144.7,10.6 	"/>
	<polygon class="st0" points="160.5,10.6 170,10.6 170,13.6 163.7,13.6 163.7,20.1 169.2,20.1 169.2,23 163.7,23 163.7,29.5 
		170,29.5 170,32.7 160.5,32.7 160.5,10.6 	"/>
	<polygon class="st0" points="180.1,23.3 175.8,10.6 179.1,10.6 181.7,19.4 181.7,19.4 184.3,10.6 187.6,10.6 183.3,23.3 
		183.3,32.7 180.1,32.7 180.1,23.3 	"/>
	<g>
		<defs>
			<rect id="SVGID_1_" y="0" width="214" height="42.8"/>
		</defs>
		<clipPath id="SVGID_2_">
			<use xlink:href="#SVGID_1_"  style="overflow:visible;"/>
		</clipPath>
		<polygon class="st1" points="206.2,2.7 206.2,4 204.5,4 204.5,10.6 202.9,10.6 202.9,4 201.2,4 201.2,2.7 206.2,2.7 		"/>
		<polygon class="st1" points="211.6,2.7 210.5,8.3 210.4,8.3 209.3,2.7 207,2.7 207,10.6 208.4,10.6 208.4,4.3 208.4,4.3 
			209.8,10.6 211.1,10.6 212.5,4.3 212.5,4.3 212.5,10.6 214,10.6 214,2.7 211.6,2.7 		"/>
	</g>
	<path class="st0" d="M0,0v42.8h65.1h67.3h65.1V0H0L0,0z M2.7,2.7h62.4h67.3h62.4v37.4h-62.4H65.1H2.7V2.7L2.7,2.7z"/>
</g>
</svg>
